Coordinates
version=1
nRows=14
nColumns=24
inDegrees=yes

Units are S.I. units (second, meters, Newtons, ...)
Angles are in degrees.

endheader
time	pelvis_tilt	pelvis_list	pelvis_rotation	pelvis_tx	pelvis_ty	pelvis_tz	hip_flexion_r	hip_adduction_r	hip_rotation_r	knee_angle_r	ankle_angle_r	subtalar_angle_r	mtp_angle_r	hip_flexion_l	hip_adduction_l	hip_rotation_l	knee_angle_l	ankle_angle_l	subtalar_angle_l	mtp_angle_l	lumbar_extension	lumbar_bending	lumbar_rotation
      0.76633333	     -2.97363735	     -3.16636267	      7.11822630	     -0.34381664	      0.90381993	      0.31667524	     15.03070484	      7.22682988	     -5.67719675	    -23.22177854	     13.60758296	     -1.76553804	      4.13795213	     13.48014461	     -6.44376877	     -2.21542893	    -67.13915083	     -0.71241254	     -8.87231167	      1.32272509	     -1.71770108	      5.51289128	     -4.05387224
      0.77050000	     -3.03022452	     -2.99271732	      7.07883592	     -0.33860142	      0.90497152	      0.31673367	     14.43414520	      7.10759718	     -5.57373872	    -22.68498617	     13.62936462	     -1.67417287	      4.13529265	     14.17972482	     -6.12962713	     -2.36162109	    -66.82419932	     -0.10148749	     -9.07542924	      1.27707522	     -1.66855153	      5.33031322	     -4.00435975
      0.77466667	     -3.05456626	     -2.81510706	      7.03020857	     -0.33342237	      0.90613174	      0.31681317	     13.80277252	      6.99135658	     -5.45203149	    -22.14235564	     13.63427286	     -1.58984700	      4.13156822	     14.82980022	     -5.81535469	     -2.51490266	    -66.44880620	      0.52224177	     -9.23992288	      1.19168101	     -1.70987786	      5.12612739	     -3.83649302
      0.77883333	     -3.03703392	     -2.63405697	      6.95831930	     -0.32816381	      0.90736002	      0.31692534	     13.09910182	      6.88150397	     -5.32247757	    -21.54958105	     13.65020334	     -1.51715379	      4.12827108	     15.39265745	     -5.52108499	     -2.71277790	    -65.97129973	      1.08400170	     -9.33201649	      1.03038275	     -1.75986827	      4.92715858	     -3.52984317
      0.78300000	     -3.03344536	     -2.44601818	      6.87705508	     -0.32295143	      0.90852197	      0.31703855	     12.41984575	      6.75912592	     -5.19046106	    -20.96930645	     13.64477225	     -1.43504616	      4.12754457	     15.96065855	     -5.21423072	     -2.91710385	    -65.44220761	      1.63924752	     -9.42317310	      0.87992427	     -1.80083997	      4.72303275	     -3.31409725
      0.78716667	     -3.01294869	     -2.25136578	      6.78385364	     -0.31774231	      0.90967708	      0.31717010	     11.71988593	      6.63049842	     -5.05979173	    -20.38190707	     13.63728196	     -1.33737663	      4.12931658	     16.48696305	     -4.90643352	     -3.13356878	    -64.84160708	      2.17539442	     -9.48267689	      0.75759175	     -1.86958227	      4.51063437	     -3.10795797
      0.79133333	     -2.99172116	     -2.04372643	      6.67259735	     -0.31255889	      0.91080099	      0.31731237	     11.02575503	      6.48578484	     -4.91715649	    -19.80495938	     13.61520510	     -1.23540348	      4.13186675	     16.98914090	     -4.58189691	     -3.35838321	    -64.17098223	      2.69383901	     -9.52052708	      0.67624004	     -1.95188812	      4.29811163	     -2.92271451
      0.79550000	     -2.92386975	     -1.84807173	      6.55523004	     -0.30732400	      0.91195302	      0.31750131	     10.25864273	      6.36315684	     -4.78179230	    -19.17805176	     13.60574329	     -1.14004381	      4.13841460	     17.42034494	     -4.30350889	     -3.62257657	    -63.43916182	      3.16748006	     -9.50605022	      0.57632122	     -2.06778902	      4.07174447	     -2.65718508
      0.79966667	     -2.86018185	     -1.64458326	      6.41994070	     -0.30212140	      0.91305210	      0.31770281	      9.50538779	      6.22904530	     -4.63248673	    -18.56453001	     13.57839079	     -1.04531433	      4.14722043	     17.83630880	     -4.01536589	     -3.89475876	    -62.64627507	      3.62737977	     -9.47336086	      0.48136629	     -2.19069237	      3.84592115	     -2.40767658
      0.80383333	     -2.78272708	     -1.43498235	      6.27201456	     -0.29691968	      0.91412506	      0.31793137	      8.73728254	      6.08830346	     -4.48192434	    -17.94835669	     13.55073869	     -0.94434268	      4.15822246	     18.21563157	     -3.72940233	     -4.18199894	    -61.79068855	      4.06252206	     -9.41064550	      0.39707438	     -2.33211352	      3.61602796	     -2.16085632
      0.80800000	     -2.69504245	     -1.22769243	      6.11291904	     -0.29172651	      0.91515975	      0.31817929	      7.95874814	      5.94861941	     -4.32607766	    -17.32805241	     13.51882565	     -0.84516688	      4.17124732	     18.56710950	     -3.45504194	     -4.48250379	    -60.88120847	      4.46864226	     -9.31913899	      0.31972010	     -2.48537072	      3.38933910	     -1.90647540
      0.81216667	     -2.60814709	     -1.00887118	      5.93417608	     -0.28655032	      0.91614251	      0.31843831	      7.19456694	      5.79004305	     -4.17649326	    -16.73140426	     13.47542645	     -0.74240958	      4.18384547	     18.89515630	     -3.17123820	     -4.79907212	    -59.90604594	      4.85195197	     -9.20912423	      0.26051400	     -2.63336077	      3.16572725	     -1.67685369
      0.81633333	     -2.49829332	     -0.81137952	      5.75720607	     -0.28136702	      0.91708675	      0.31874119	      6.38933095	      5.66040733	     -4.01238825	    -16.09128458	     13.44522221	     -0.63700208	      4.20329980	     19.19308735	     -2.92851809	     -5.12257854	    -58.89885917	      5.20244701	     -9.06738327	      0.19256896	     -2.82164124	      2.92813439	     -1.38314049
      0.82050000	     -2.41171596	     -0.58933197	      5.54985406	     -0.27621558	      0.91794748	      0.31905346	      5.64289975	      5.48944831	     -3.86572728	    -15.51980933	     13.38843237	     -0.52472696	      4.21736217	     19.48688461	     -2.65900507	     -5.47276096	    -57.81869118	      5.52757398	     -8.91609405	      0.15183330	     -2.97428760	      2.68849072	     -1.17290233
